<svg xmlns="http://www.w3.org/2000/svg" width="583" height="547" fill="currentColor" viewBox="0 0 583 547">
  <path fill-opacity=".48" d="m0 417.608.01-1.993c.508-46.563 10.578-158.459 92.874-191.732 13.923-5.628 30.274-9.223 51.449-11.313 2.12-.208 4.871-.262 7.781-.319 5.431-.102 12.866-.248 16.178-1.639 5.501-2.314 6.874-5 8.948-9.059 1.364-2.667 2.91-5.693 5.79-8.918 3.686-4.124 7.354-7.292 10.9-10.359 7.735-6.682 13.843-11.96 16.521-24.179 1.343-6.146 1.559-12.166 1.764-17.985.31-8.708.631-17.71 4.66-27.23 1.014-2.397 2.163-5.663 3.376-9.121 3.857-10.973 8.657-24.632 15.774-30.271 4.641-3.676 10.431-4.153 15.539-4.572 3.749-.307 7.29-.6 9.849-2.036 2.449-1.375 4.458-3.937 6.585-6.653 1.694-2.16 3.444-4.39 5.634-6.356 3.811-3.425 8.598-9.201 13.665-15.32 17.146-20.696 40.63-49.042 64.901-34.617 8.881 5.272 25.35 38 26.607 46.56.21 1.424.316 2.945.316 4.523 0 5.286-1.182 10.785-2.322 16.103-1.122 5.226-2.282 10.628-2.282 15.684 0 3.563.572 6.659 1.742 9.46 8.118 19.383 32.214 21.6 55.517 23.746 11.399 1.049 22.168 2.042 30.771 5.065 13.236 4.655 19.492 3.026 28.149.771 5.065-1.316 10.806-2.813 18.727-3.279 6.205-.367 11.429 1.327 16.48 2.966 3.223 1.047 6.265 2.034 9.439 2.444 2.554.329 5.455.089 8.53-.162 4.506-.372 9.166-.752 13.659.561C578.582 134.527 583 147.269 583 156.872c0 22.354-23.163 46.968-27.807 51.677-21.577 21.871-48.076 41.285-68.753 55.754-5.291 3.702-10.922 6.41-16.367 9.026-8.12 3.902-15.789 7.589-21.741 14.193-2.444 2.713-4.383 6.114-6.26 9.399-4.387 7.688-9.762 17.106-22.906 16.013-3.352 6.462-11.632 7.09-18.479 7.608-6.122.464-12.451.944-15.693 4.644-2.146 2.451-3.061 5.278-3.061 9.455 0 2.133.232 4.328.48 6.65.251 2.352.51 4.784.51 7.187 0 3.819-.572 9.161-5.059 13.67 1.311 5.467 1.448 11.373 1.58 17.106.122 5.14.235 9.997 1.128 14.434.706 3.516 2.324 7.233 4.039 11.165 2.605 5.978 5.3 12.162 5.3 18.788 0 1.324-.111 2.64-.332 3.9l-.281 1.615-20.943 15.232c-2.931 2.591-5.361 4.409-7.322 5.873-5.515 4.121-6.51 4.866-6.904 14.55-.124 3.193.637 6.599 1.449 10.285.865 3.935 1.761 8.002 1.761 12.322 0 4.978-1.219 9.382-3.722 13.457-2.961 4.819-6.847 6.529-9.968 7.902-2.106.928-3.926 1.729-5.436 3.401-1.867 2.065-2.961 4.552-4.121 7.187-1.246 2.831-2.656 6.038-5.178 8.929-10.722 12.289-21.254 15.126-36.35 9.795-10.103-3.568-19.752-11.095-29.97-19.064-15.159-11.826-30.835-24.05-47.235-21.742-9.02 1.27-15.59 8.74-22.545 16.65-5.213 5.925-10.601 12.052-17.386 15.86-2.721 1.527-5.496 3.323-8.436 5.229-9.606 6.216-19.538 12.643-30.04 11.348-11.321-1.399-32.286-10.709-40.614-19.578-2.907-3.096-4.663-6.483-6.208-9.474-1.925-3.722-3.587-6.931-7.136-9.461-2.413-1.718-5.256-2.621-8.268-3.578-3.67-1.165-7.829-2.487-11.648-5.486-3.217-2.532-5.571-5.552-7.847-8.473-2.468-3.172-4.798-6.165-8.09-8.366-3.018-2.014-6.597-3.187-10.386-4.428-3.568-1.17-7.257-2.376-10.898-4.39C2.939 460.453 0 436.799 0 417.608ZM371.033 55.019c0-1.2-.076-2.295-.229-3.347-1.122-7.632-17.155-37.466-22.737-40.778-18.322-10.89-38.405 13.346-54.54 32.823-5.494 6.631-10.235 12.354-14.49 16.178-1.664 1.494-3.126 3.357-4.671 5.329-2.525 3.22-5.135 6.553-8.997 8.716-4.096 2.3-8.697 2.675-13.144 3.042-4.347.359-8.455.696-11.176 2.853-5.286 4.186-9.84 17.147-13.166 26.61-1.256 3.581-2.446 6.963-3.557 9.595-3.446 8.142-3.729 16.019-4.026 24.36-.219 6.179-.445 12.567-1.95 19.428-3.25 14.854-10.965 21.518-19.134 28.573-3.352 2.894-6.817 5.89-10.156 9.622-2.184 2.446-3.366 4.763-4.62 7.211-2.354 4.609-4.789 9.377-13.012 12.837-4.743 1.993-12.402 2.141-19.158 2.274-2.745.054-5.34.102-7.141.28-20.388 2.009-36.024 5.431-49.211 10.76C18.13 262.836 8.589 370.765 8.1 415.707l-.01 1.901c0 18.026 2.575 37.877 21.69 48.451 2.972 1.643 6.143 2.681 9.498 3.781 4.142 1.354 8.425 2.756 12.365 5.389 4.38 2.923 7.227 6.58 9.98 10.118 2.07 2.654 4.022 5.164 6.462 7.082 2.668 2.095 5.793 3.09 9.1 4.139 3.473 1.103 7.068 2.244 10.512 4.698 5.14 3.663 7.524 8.266 9.625 12.33 1.431 2.764 2.783 5.378 4.921 7.656 6.804 7.249 26.197 15.909 35.703 17.087 7.581.936 16.259-4.681 24.655-10.113 2.915-1.887 5.927-3.84 8.869-5.488 5.583-3.136 10.289-8.484 15.272-14.15 7.624-8.667 15.507-17.629 27.494-19.317 19.798-2.789 36.85 10.512 53.338 23.373 9.684 7.554 18.829 14.684 27.688 17.815 11.869 4.191 19.08 2.233 27.559-7.486 1.71-1.961 2.759-4.345 3.87-6.869 1.302-2.964 2.783-6.321 5.523-9.355 2.673-2.956 5.599-4.242 8.182-5.38 2.724-1.198 4.693-2.066 6.332-4.73 1.724-2.805 2.524-5.737 2.524-9.224 0-3.441-.763-6.911-1.572-10.582-.887-4.021-1.796-8.22-1.629-12.351.529-13.015 3.32-15.604 10.143-20.704 1.969-1.469 4.199-3.136 6.942-5.571l.307-.248 18.352-13.347c.334-5.21-2.058-10.712-4.595-16.529-1.81-4.147-3.679-8.438-4.555-12.799-1.033-5.129-1.16-10.577-1.281-15.841-.149-6.359-.289-12.37-1.923-17.421l-.893-2.756 2.325-1.735c2.853-2.125 3.967-4.662 3.967-9.05 0-1.974-.227-4.091-.464-6.332-.259-2.43-.526-4.946-.526-7.505 0-3.865.523-9.601 5.065-14.784 5.418-6.189 13.786-6.821 21.167-7.381 8.91-.675 11.78-1.414 12.365-4.725l.723-4.094 4.072.833c9.576 1.969 12.691-2.618 17.807-11.58 2.09-3.659 4.25-7.443 7.276-10.803 7.017-7.791 15.776-11.998 24.247-16.068 5.154-2.478 10.482-5.038 15.234-8.365 20.394-14.272 46.512-33.4 67.631-54.808 11.753-11.912 25.477-31.107 25.477-45.994 0-10.086-6.427-16.868-19.649-20.733-3.056-.893-6.783-.588-10.728-.264-3.358.277-6.829.561-10.229.121-3.921-.507-7.468-1.656-10.901-2.77-4.538-1.469-8.824-2.861-13.508-2.586-7.13.421-12.233 1.748-17.168 3.034-9.285 2.416-17.305 4.504-32.869-.968-7.656-2.691-17.939-3.641-28.829-4.641-24.487-2.255-52.24-4.809-62.237-28.678-1.596-3.81-2.37-7.926-2.37-12.584 0-5.914 1.251-11.741 2.462-17.38 1.103-5.133 2.144-9.981 2.144-14.407Z"/>
  <path fill-opacity=".48" d="M22.734 394.742v-.008c.003-36.234 13.705-81.727 26.003-99.895 17.877-26.418 37.841-41.585 62.827-47.734 2.921-.72 5.914-1.281 8.813-1.823 4.315-.806 8.773-1.639 13.118-3.017 1.653-.524 2.899-1.761 4.22-3.075 1.688-1.677 3.606-3.581 6.683-4.271 2.813-.629 5.461.215 7.799.962 1.91.61 3.711 1.182 5.383.944 4.819-.69 8.743-2.867 12.54-4.967 3.449-1.912 6.707-3.719 10.343-4.237 4.484-.642 8.942 1.149 13.254 2.88 3.034 1.219 5.901 2.373 8.654 2.67 9.733 1.052 17.201-.696 22.829-5.337 11.389-9.39 13.058-29.215 14.533-46.701.227-2.71.453-5.366.707-7.923 3.403-34.212 14.864-53.605 37.693-81.708 4.234-5.213 42.089-50.38 66.997-31.14 5.164 3.988 7.465 8.856 7.465 15.784 0 2.697-.34 5.491-.666 8.193-.329 2.71-.669 5.515-.669 8.225.003 2.684.337 5 1.03 7.082 3.927 11.807 16.456 18.924 26.871 21.648 16.785 4.387 33.246 8.451 49.166 12.381 10.353 2.556 20.735 5.118 31.329 7.799 1.283.324 4.258.806 8.025 1.418 20.137 3.274 62.038 10.087 62.038 24.935 0 3.87-2.686 7.732-8.204 11.807l-14.436 28.869-.396.203c-3.261 1.65-6.567 4.692-10.065 7.912-4.45 4.091-9.048 8.32-13.88 9.797-7.622 2.328-14.267.054-20.69-2.146-4.002-1.37-7.783-2.665-11.796-2.926-19.574-1.281-22.163 11.909-25.159 27.181-.744 3.8-1.515 7.729-2.581 11.488-4.347 15.334-6.405 18.813-20.22 24.256-3.851 1.521-6.818 2.192-9.205 2.731-5.226 1.184-7.85 1.775-13.157 9.374-6.88 9.849-10.054 22.503-13.123 34.735-1.691 6.743-3.29 13.11-5.456 18.902l-.213.569c-4.436 11.858-7.365 19.693-7.365 30.83 0 3.393.267 7.023.817 11.1.594 4.394 1.459 7.943 2.223 11.071.9 3.686 1.677 6.874 1.677 10.156 0 4.965-1.788 9.641-5.982 15.636-2.319 3.317-4.447 5.038-6.329 6.553-2.678 2.163-4.614 3.722-5.995 9.232-.965 3.826.334 7.731 1.694 11.318.976 2.576 1.987 5.237 2.03 8.018l.006.814c0 15.391-6.726 19.096-15.24 23.792-2.818 1.553-5.731 3.16-8.74 5.366-3.296 2.417-6.06 4.836-8.501 6.969-8.646 7.562-14.894 13.023-32.383 7.602-17.702-5.485-22.473-16.593-29.072-31.968l-.491-1.146c-1.235-2.872-2.413-6.343-3.659-10.016-4.207-12.411-9.444-27.853-20.28-28.317-13.444-.579-17.384 9.14-21.556 19.428-2.039 5.022-4.142 10.219-7.457 13.883-5.393 5.971-8.662 5.799-12.122 5.621-2.359-.122-4.797-.248-8.562 1.726-3.514 1.842-7.26 5.703-10.884 9.438-1.724 1.775-3.347 3.452-4.925 4.89l-.639.585c-10.668 9.733-20.744 18.926-35.611 10.874-2.419-1.308-17.201-14.318-19.771-17.395-4.53-5.437-4.94-9.293-5.377-13.379-.264-2.489-.537-5.062-1.842-8.236-6.715-16.37-11.534-15.768-22.092-14.449-3.646.455-7.78.973-12.81.946-25.625-.148-39.166-19.784-39.166-56.779ZM349.893 76.149c0-6.092-1.918-10.172-6.416-13.651-22.883-17.675-59.19 25.703-63.254 30.708-22.483 27.678-33.767 46.75-37.103 80.276-.253 2.541-.474 5.186-.704 7.883-1.518 18.02-3.238 38.443-15.504 48.556-6.127 5.057-14.484 7.052-24.832 5.936-3.125-.337-6.3-1.615-9.371-2.848-3.984-1.602-8.099-3.255-11.866-2.716-3.142.448-6.192 2.139-9.418 3.924-3.821 2.117-8.152 4.52-13.462 5.281-2.29.326-4.474-.372-6.586-1.047-2.206-.704-4.29-1.37-6.388-.898-2.317.518-3.8 1.991-5.372 3.552-1.489 1.478-3.026 3.007-5.302 3.73-4.504 1.426-9.048 2.278-13.439 3.098-2.861.534-5.817 1.087-8.664 1.788-24.299 5.982-43.756 20.798-61.237 46.628-12.08 17.845-25.536 62.639-25.539 98.383v.008c0 24.579 6.327 53.906 36.47 54.076 4.856.027 8.896-.477 12.458-.925 10.866-1.356 17.425-2.176 24.924 16.106 1.446 3.527 1.753 6.418 2.028 8.972.408 3.824.758 7.13 4.766 11.936 2.532 3.037 17.076 15.717 18.985 16.753 13.18 7.138 22.136-1.033 32.508-10.496l.642-.586c1.518-1.383 3.114-3.028 4.805-4.773 3.773-3.886 7.675-7.91 11.567-9.948 4.42-2.314 7.486-2.158 9.954-2.028 3.163.164 5.447.283 9.981-4.736 2.993-3.314 4.919-8.061 6.957-13.09 4.137-10.202 8.824-21.769 24.172-21.111 12.68.547 18.247 16.96 22.721 30.148 1.227 3.621 2.386 7.038 3.581 9.819l.491 1.146c6.316 14.708 10.879 25.339 27.391 30.455 16.052 4.976 21.23.445 29.811-7.058 2.481-2.171 5.294-4.63 8.684-7.114 3.15-2.308 6.275-4.034 9.034-5.555 8.339-4.596 13.845-7.632 13.845-21.429l-.005-.771c-.035-2.306-.917-4.636-1.855-7.101-1.098-2.897-2.236-5.895-2.236-9.32 0-1.217.151-2.433.445-3.617 1.602-6.38 4.064-8.371 6.917-10.671 1.823-1.472 3.711-2.993 5.812-5.998 3.851-5.509 5.493-9.722 5.493-14.093 0-2.959-.706-5.852-1.599-9.515-.779-3.195-1.664-6.814-2.276-11.351-.566-4.198-.841-7.944-.841-11.461-.003-11.626 2.996-19.641 7.535-31.774l.213-.566c2.111-5.653 3.692-11.95 5.364-18.614 3.128-12.47 6.364-25.366 13.529-35.622 5.906-8.454 9.434-9.253 14.774-10.461 2.413-.547 5.153-1.167 8.813-2.608 12.362-4.873 14.277-7.184 18.613-22.486 1.036-3.648 1.796-7.521 2.53-11.27 2.969-15.137 6.041-30.789 27.982-29.354 4.369.283 8.498 1.699 12.492 3.066 6.297 2.157 12.243 4.191 19.031 2.117 4.245-1.295 8.616-5.316 12.842-9.202 3.352-3.082 6.812-6.264 10.272-8.122l14.337-28.67.267-.192c4.884-3.551 7.359-6.858 7.359-9.822 0-12.553-43.427-19.613-59.775-22.272-3.98-.648-6.855-1.117-8.252-1.47-10.588-2.675-20.962-5.237-31.313-7.794-15.93-3.932-32.402-7.996-49.203-12.392-11.1-2.902-24.479-10.574-28.748-23.403-.785-2.362-1.168-4.957-1.168-7.934 0-2.872.351-5.76.688-8.552.332-2.734.645-5.326.645-7.858Z"/>
  <path fill-opacity=".48" d="M36.82 378.26c0-7.152.776-15.07 2.308-23.527 2.36-13.018 7.077-22.465 13.047-34.425 1.643-3.288 3.24-7.724 4.93-12.422 3.08-8.567 6.268-17.427 10.574-22.259 9.172-10.299 33.934-19.253 52.011-25.79 4.836-1.747 9.01-3.258 12.362-4.595 11.011-4.401 23.08-4.28 34.749-4.164 2.807.027 5.623.057 8.438.024 6.936-.075 14.609-1.831 22.03-3.53 8.838-2.02 17.187-3.929 24.455-3.244 6.103.574 10.582 2.648 14.533 4.477 6.95 3.217 11.969 5.544 22.238-1.551 9.954-6.88 10.766-14.08 10.766-22.101 0-1.558-.041-3.176-.081-4.859-.078-3.288-.165-6.812.013-10.663.507-10.952 3.646-19.889 6.68-28.535 2.08-5.92 4.229-12.042 5.529-18.794.809-4.194 1.289-8.25 1.75-12.171 1.624-13.743 3.026-25.612 17.138-35.385 14.07-9.741 17.198-7.306 23.525-.345 1.949 2.144 4.158 4.574 7.311 7.157 9.66 7.915 22.877 11.178 35.66 14.328l1.165.286c8.905 2.198 19.152 3.274 30.002 4.409 21.385 2.241 43.499 4.558 58.108 15.914 7.61 5.917 12.926 16.151 12.926 24.892 0 7.074-3.236 12.653-9.358 16.138-3.347 1.904-7.81 1.976-12.13 2.049-3.932.065-7.999.132-11.076 1.564-6.583 3.067-10.043 7.635-14.045 12.929l-1.095 1.44c-6.332 8.301-11.863 17.262-17.214 25.93-7.438 12.046-14.46 23.424-23.368 33.009-7.222 7.769-9.056 13.376-11.378 20.477-1.299 3.975-2.772 8.479-5.436 13.902-2.136 4.352-5.321 8.158-8.398 11.839-5.086 6.081-9.89 11.825-9.89 19.544l.009.744-16.675 23.993c-6.588 5.488-7.122 10.548-7.737 16.411-.369 3.53-.79 7.526-2.629 11.887-2.287 5.421-5.844 9.296-9.288 13.047-4.121 4.491-8.012 8.73-10.084 15.547-1.068 3.52-1.504 7.055-1.925 10.478-1.019 8.295-1.985 16.129-11.672 21.329-14.956 8.028-20.248-.65-25.852-9.841-1.448-2.376-2.944-4.833-4.676-7.165-17.259-23.247-29.271-32.146-50.832-19.854-6.365 3.63-11.154 11.553-16.224 19.943-7.775 12.866-16.559 27.405-32.912 26.021-1.389 8.447-7.241 11.224-12.44 10.96-7.77-.394-16.154-7.562-16.154-18.457 0-1.13.089-2.29.269-3.447.979-6.367 2.74-11.596 4.294-16.21 1.89-5.623 3.527-10.48 3.527-16.17 0-4.331-.992-8.892-3.031-13.902-2.325 1.221-4.795 2.573-7.376 3.986-18.611 10.183-44.103 24.133-64.184 14.495-15.385-7.381-23.187-22.772-23.187-45.743Zm235.138-153.104c0 8.474-.912 16.707-11.928 24.317-11.535 7.972-17.732 5.105-24.903 1.783-3.937-1.826-8.009-3.711-13.654-4.239-6.836-.645-14.981 1.216-23.602 3.19-7.559 1.729-15.375 3.514-22.6 3.595-2.837.032-5.671.002-8.495-.025-11.933-.118-23.203-.231-33.72 3.97-3.396 1.359-7.589 2.872-12.446 4.631-17.807 6.44-42.195 15.255-50.916 25.048-3.956 4.439-7.193 13.435-10.051 21.375-1.718 4.776-3.339 9.285-5.032 12.675-5.896 11.806-10.534 21.102-12.826 33.739-1.505 8.298-2.268 16.055-2.268 23.047 0 21.845 7.286 36.418 21.663 43.317 18.83 9.042 43.621-4.523 61.722-14.428 3.088-1.691 6.011-3.293 8.727-4.687l1.278-.658.575 1.316c2.57 5.887 3.818 11.221 3.818 16.313 0 6.132-1.782 11.426-3.667 17.033-1.591 4.73-3.236 9.619-4.183 15.76a19.848 19.848 0 0 0-.237 3.036c-.003 9.313 7.054 15.434 13.594 15.766 5.48.275 9.145-3.42 9.8-9.889l.141-1.386 1.38.186c15.469 2.076 23.665-11.483 31.591-24.598 5.256-8.7 10.221-16.917 17.192-20.892 25.415-14.485 39.093.065 54.333 20.593 1.804 2.43 3.336 4.94 4.816 7.367 5.761 9.45 9.566 15.69 22.273 8.87 8.455-4.538 9.296-11.372 10.27-19.282.434-3.535.884-7.19 2.02-10.933 2.252-7.403 6.534-12.071 10.679-16.583 3.439-3.745 6.685-7.284 8.789-12.273 1.683-3.988 2.066-7.616 2.432-11.121.645-6.138 1.255-11.936 8.552-18.08l15.836-22.869c.035-8.657 5.364-15.026 10.517-21.191 2.978-3.557 6.055-7.239 8.048-11.297 2.581-5.254 3.959-9.472 5.291-13.549 2.327-7.122 4.339-13.271 11.966-21.478 8.726-9.387 15.684-20.657 23.047-32.588 5.385-8.721 10.951-17.742 17.364-26.148l1.087-1.432c4.045-5.348 7.867-10.396 15.056-13.746 3.598-1.675 7.956-1.747 12.171-1.817 4.164-.068 8.096-.135 10.841-1.697 6.608-3.762 7.994-9.576 7.994-13.794 0-7.961-4.887-17.322-11.885-22.761-13.999-10.882-35.722-13.161-56.733-15.358-10.944-1.147-21.281-2.231-30.366-4.474l-1.162-.286c-12.465-3.075-26.591-6.562-36.723-14.862-3.306-2.711-5.685-5.329-7.597-7.43-5.612-6.176-7.306-8.037-19.994.747-13.112 9.08-14.447 20.39-15.995 33.483-.469 3.97-.955 8.075-1.78 12.365-1.337 6.947-3.522 13.166-5.633 19.175-3.107 8.851-6.044 17.211-6.529 27.769-.173 3.773-.089 7.249-.014 10.472.035 1.693.076 3.33.076 4.913Z"/>
  <path fill-opacity=".48" d="M51.39 368.011v-.006c0-7.931 1.597-16.135 4.374-22.507l2.134-4.93c10.164-23.575 20.673-47.955 48.521-57.137 4.288-1.413 8.824-1.303 13.206-1.198 3.643.089 7.079.173 10.399-.539 3.843-.823 7.33-2.575 10.706-4.272 3.398-1.707 6.912-3.473 10.855-4.355 12.26-2.737 30.299-2.719 41.971.048 6.876 1.632 13.81 4.186 20.517 6.659 21.458 7.912 41.728 15.385 57.132-8.196 1.742-2.67 2.794-5.531 3.905-8.559 1.364-3.719 2.778-7.565 5.571-11.014 1.813-2.239 4.245-3.676 6.597-5.065 2.664-1.575 5.418-3.201 7.365-6.038 5.31-7.743 5.674-17.953 6.03-27.828.154-4.323.313-8.789.895-12.945 2.347-16.772 6.734-27.044 13.813-32.332 9.552-7.136 23.109-5.108 41.874-2.298l6.782 1.001c24.439 3.562 45.544 6.642 45.544 23.284 0 6.386-3.225 14.325-9.862 24.263-9.385 14.061-17.964 28.945-26.259 43.341-5.423 9.411-11.03 19.144-16.823 28.578-3.686 6.003-8.694 12.176-13.996 18.71-11.699 14.417-23.794 29.325-24.005 44.883l-.005.329-.156.292-12.586 23.373c-4.078 9.633-18.808 27.799-31.599 32.96-4.49 1.813-8.495 1.993-11.912.537-6.809-2.902-9.994-10.04-13.074-16.941-2.521-5.653-5.129-11.5-9.671-14.749-13.753-9.838-25.22-3.878-36.728 3.673-1.933 1.27-4.336 3.398-6.882 5.655-8.368 7.414-19.827 17.567-28.632 9.056-3.606-3.484-3.794-10.979-3.991-18.916-.2-8.055-.41-16.383-4.021-20.797-5.356-6.546-10.782-9.72-16.588-9.714-12.554.016-24.878 15.158-35.752 28.518-6.351 7.805-12.349 15.175-17.796 18.733-10.388 6.787-19.112 8.357-25.93 4.665-7.462-4.04-11.923-14.59-11.923-28.222Zm355.494-178.23c0-14.312-20.037-17.232-43.238-20.614l-6.79-1.006c-18.12-2.71-31.211-4.668-39.862 1.79-6.462 4.83-10.515 14.536-12.756 30.547-.561 4.019-.712 8.22-.871 12.667-.367 10.259-.747 20.868-6.502 29.261-2.284 3.328-5.299 5.11-8.214 6.831-2.247 1.327-4.367 2.581-5.874 4.439-2.514 3.101-3.786 6.574-5.135 10.248-1.114 3.036-2.268 6.178-4.18 9.104-16.577 25.38-38.815 17.181-60.319 9.253-6.635-2.444-13.493-4.973-20.208-6.567-11.324-2.681-28.845-2.699-40.757-.038-3.619.809-6.833 2.422-10.237 4.132-3.525 1.772-7.171 3.603-11.351 4.501-3.63.776-7.389.687-11.027.598-4.347-.105-8.454-.205-12.3 1.06-26.693 8.803-36.96 32.616-46.89 55.644l-2.138 4.943c-2.638 6.041-4.148 13.851-4.148 21.426v.005c0 12.627 3.93 22.29 10.51 25.852 5.881 3.185 13.678 1.651 23.173-4.555 5.095-3.325 10.966-10.539 17.179-18.176 11.251-13.824 24.004-29.493 37.839-29.512 6.575-.01 12.858 3.593 18.678 10.704 4.199 5.127 4.42 13.926 4.633 22.435.184 7.368.359 14.328 3.172 17.044 7.011 6.774 16.968-2.05 24.97-9.14 2.621-2.319 5.096-4.514 7.189-5.89 11.834-7.764 24.652-14.438 39.778-3.611 5.135 3.673 7.894 9.86 10.564 15.841 2.998 6.724 5.833 13.075 11.666 15.561 2.732 1.165 6.046.976 9.843-.555 12.168-4.911 26.224-22.29 30.178-31.629l12.483-23.198c.391-16.372 13.25-32.216 24.601-46.21 5.245-6.467 10.199-12.569 13.791-18.422 5.774-9.401 11.373-19.117 16.788-28.513 8.314-14.433 16.914-29.357 26.35-43.489 6.335-9.476 9.412-16.925 9.412-22.761Z"/>
  <path fill-opacity=".48" d="M74.653 340.649c0-20.579 17.931-30.77 33.554-37.353 2.923-1.233 5.779-2.498 8.6-3.746 16.283-7.211 31.666-14.018 51.477-10.674 7.34 1.238 21.784 4.816 29.309 9.15 5.895 3.398 8.983 7.918 11.968 12.29 2.193 3.206 4.458 6.526 7.872 9.428 5.421 4.611 11.683 6.604 18.616 5.922 10.205-1.006 21.227-7.834 29.482-18.268 4.191-5.294 7.68-12.193 11.375-19.504 3.878-7.669 7.888-15.598 12.821-21.561 2.384-2.885 5.682-4.738 8.867-6.529 3.266-1.836 6.351-3.57 8.241-6.243 2.201-3.117 3.061-7.858 3.894-12.44.586-3.234 1.141-6.289 2.144-8.924 5.92-15.544 32.443-40.584 49.155-38.807 5.305.563 12.06 4.061 14.118 17.507.313 2.045.472 4.143.472 6.238 0 20.067-14.177 38.619-26.685 54.991-2.756 3.606-5.359 7.012-7.732 10.329-2.831 3.959-6.529 10.329-10.811 17.707-10.399 17.92-23.309 40.161-33.128 43.365l-12.19 13.932c-2.715 6.28-5.844 9.676-9.557 10.377-5.936 1.122-11.745-4.79-17.899-11.049-5.067-5.156-10.31-10.488-15.28-11.356-10.342-1.804-20.337 1.429-30.919 4.857-9.501 3.077-19.325 6.256-29.775 5.72l-1.381-.07.102-1.376c1.087-14.428-1.451-23.497-7.734-27.683-11.381-7.58-33.419 1.629-54.732 10.531-16.89 7.053-32.84 13.716-42.577 11.37l-.847-.207-.16-.866c-.436-2.422-.66-4.792-.66-7.058Zm299.273-123.514c0-1.96-.148-3.918-.439-5.83-1.446-9.431-5.394-14.555-11.739-15.232-15.361-1.631-40.841 22.613-46.35 37.084-.915 2.403-1.449 5.337-2.012 8.446-.885 4.874-1.799 9.909-4.345 13.514-2.241 3.174-5.739 5.14-9.12 7.042-2.972 1.669-6.047 3.398-8.113 5.895-4.738 5.73-8.681 13.527-12.491 21.062-3.592 7.106-7.308 14.449-11.667 19.959-8.699 10.995-20.412 18.201-31.334 19.277-7.688.755-14.63-1.448-20.628-6.553-3.686-3.137-6.057-6.608-8.349-9.962-2.948-4.31-5.728-8.379-11.092-11.47-7.217-4.156-21.256-7.621-28.408-8.827-19.013-3.209-34.034 3.439-49.94 10.48a499.132 499.132 0 0 1-8.643 3.765c-14.857 6.257-31.906 15.876-31.906 34.867 0 1.826.159 3.735.466 5.682 9.005 1.556 24.099-4.749 40.048-11.413 21.971-9.177 44.684-18.667 57.264-10.285 6.963 4.635 9.911 13.937 9.029 28.726 9.463.175 18.595-2.778 27.437-5.642 10.426-3.376 21.211-6.866 32.211-4.946 5.823 1.017 11.373 6.662 16.739 12.12 5.386 5.477 10.958 11.143 15.477 10.288 2.762-.52 5.34-3.543 7.665-8.983l.224-.359 12.853-14.689.391-.108c8.802-2.416 22.159-25.434 31.911-42.237 4.315-7.436 8.042-13.859 10.949-17.921 2.398-3.349 5.011-6.774 7.78-10.396 12.249-16.033 26.132-34.204 26.132-53.354Z"/>
</svg>
